<?xml version="1.0" encoding="UTF-8" standalone="no"?>
<!DOCTYPE svg PUBLIC "-//W3C//DTD SVG 1.1//EN"
 "http://www.w3.org/Graphics/SVG/1.1/DTD/svg11.dtd">
<!-- Generated by graphviz version 2.38.0 (20140413.2041)
 -->
<!-- Title: models_diagram Pages: 1 -->
<svg width="571pt" height="158pt"
 viewBox="0.00 0.00 571.34 158.00" xmlns="http://www.w3.org/2000/svg" xmlns:xlink="http://www.w3.org/1999/xlink">
<g id="graph0" class="graph" transform="scale(1 1) rotate(0) translate(4 154)">
<title>models_diagram</title>
<polygon fill="none" stroke="none" points="-4,4 -4,-154 567.343,-154 567.343,4 -4,4"/>
<!-- _diagram_info -->
<g id="node1" class="node"><title>_diagram_info</title>
<text text-anchor="start" x="8" y="-135.6" font-family="Times,serif" font-size="13.00">Models diagram</text>
<text text-anchor="start" x="8" y="-121.6" font-family="Times,serif" font-size="13.00">Date: Jul 19 2017 &#45; 19:28</text>
<text text-anchor="start" x="8" y="-107.6" font-family="Times,serif" font-size="13.00">Migration version: 20170719231819</text>
<text text-anchor="start" x="8" y="-93.6" font-family="Times,serif" font-size="13.00">Generated by RailRoady 1.5.3</text>
<text text-anchor="start" x="8" y="-79.6" font-family="Times,serif" font-size="13.00">http://railroady.prestonlee.com</text>
</g>
<!-- Category -->
<g id="node2" class="node"><title>Category</title>
<ellipse fill="none" stroke="black" cx="275" cy="-111" rx="42.7926" ry="18"/>
<text text-anchor="middle" x="275" y="-107.3" font-family="Times,serif" font-size="14.00">Category</text>
</g>
<!-- Item -->
<g id="node5" class="node"><title>Item</title>
<ellipse fill="none" stroke="black" cx="319" cy="-18" rx="27.0966" ry="18"/>
<text text-anchor="middle" x="319" y="-14.3" font-family="Times,serif" font-size="14.00">Item</text>
</g>
<!-- Category&#45;&gt;Item -->
<g id="edge1" class="edge"><title>Category&#45;&gt;Item</title>
<path fill="none" stroke="#1f0056" d="M286.664,-85.8765C292.823,-73.139 300.38,-57.509 306.64,-44.5631"/>
<ellipse fill="none" stroke="#1f0056" cx="284.812" cy="-89.7081" rx="4.00002" ry="4.00002"/>
<polygon fill="#1f0056" stroke="#1f0056" points="306.776,-44.2817 315.18,-37.2377 308.952,-39.7802 311.129,-35.2788 311.129,-35.2788 311.129,-35.2788 308.952,-39.7802 307.078,-33.3199 306.776,-44.2817 306.776,-44.2817"/>
</g>
<!-- ApplicationRecord -->
<g id="node3" class="node"><title>ApplicationRecord</title>
<ellipse fill="none" stroke="black" cx="486" cy="-111" rx="77.1866" ry="18"/>
<text text-anchor="middle" x="486" y="-107.3" font-family="Times,serif" font-size="14.00">ApplicationRecord</text>
</g>
<!-- User -->
<g id="node4" class="node"><title>User</title>
<ellipse fill="none" stroke="black" cx="363" cy="-111" rx="27.0966" ry="18"/>
<text text-anchor="middle" x="363" y="-107.3" font-family="Times,serif" font-size="14.00">User</text>
</g>
<!-- User&#45;&gt;Item -->
<g id="edge2" class="edge"><title>User&#45;&gt;Item</title>
<path fill="none" stroke="#2a8101" d="M351.546,-86.3102C345.386,-73.5711 337.782,-57.8442 331.473,-44.7965"/>
<ellipse fill="none" stroke="#2a8101" cx="353.392" cy="-90.1299" rx="4.00002" ry="4.00002"/>
<polygon fill="#2a8101" stroke="#2a8101" points="331.3,-44.4378 330.998,-33.4761 329.123,-39.9364 326.947,-35.4349 326.947,-35.4349 326.947,-35.4349 329.123,-39.9364 322.895,-37.3938 331.3,-44.4378 331.3,-44.4378"/>
</g>
</g>
</svg>
