<?xml version="1.0" encoding="UTF-8" standalone="no"?>
<!DOCTYPE svg PUBLIC "-//W3C//DTD SVG 1.1//EN"
 "http://www.w3.org/Graphics/SVG/1.1/DTD/svg11.dtd">
<!-- Generated by graphviz version 2.38.0 (20140413.2041)
 -->
<!-- Title: models_diagram Pages: 1 -->
<svg width="918pt" height="303pt"
 viewBox="0.00 0.00 918.34 303.00" xmlns="http://www.w3.org/2000/svg" xmlns:xlink="http://www.w3.org/1999/xlink">
<g id="graph0" class="graph" transform="scale(1 1) rotate(0) translate(4 299)">
<title>models_diagram</title>
<polygon fill="none" stroke="none" points="-4,4 -4,-299 914.343,-299 914.343,4 -4,4"/>
<!-- _diagram_info -->
<g id="node1" class="node"><title>_diagram_info</title>
<text text-anchor="start" x="8" y="-266.1" font-family="Times,serif" font-size="13.00">Models diagram</text>
<text text-anchor="start" x="8" y="-252.1" font-family="Times,serif" font-size="13.00">Date: Jul 19 2017 &#45; 19:28</text>
<text text-anchor="start" x="8" y="-238.1" font-family="Times,serif" font-size="13.00">Migration version: 20170719231819</text>
<text text-anchor="start" x="8" y="-224.1" font-family="Times,serif" font-size="13.00">Generated by RailRoady 1.5.3</text>
<text text-anchor="start" x="8" y="-210.1" font-family="Times,serif" font-size="13.00">http://railroady.prestonlee.com</text>
</g>
<!-- Category -->
<g id="node2" class="node"><title>Category</title>
<path fill="none" stroke="black" d="M244,-196C244,-196 464,-196 464,-196 470,-196 476,-202 476,-208 476,-208 476,-275 476,-275 476,-281 470,-287 464,-287 464,-287 244,-287 244,-287 238,-287 232,-281 232,-275 232,-275 232,-208 232,-208 232,-202 238,-196 244,-196"/>
<text text-anchor="middle" x="354" y="-271.8" font-family="Times,serif" font-size="14.00">Category</text>
<polyline fill="none" stroke="black" points="232,-264 476,-264 "/>
<text text-anchor="start" x="240" y="-248.8" font-family="Times,serif" font-size="14.00">id :integer</text>
<text text-anchor="start" x="240" y="-233.8" font-family="Times,serif" font-size="14.00">name :character varying</text>
<text text-anchor="start" x="240" y="-218.8" font-family="Times,serif" font-size="14.00">created_at :timestamp without time zone</text>
<text text-anchor="start" x="240" y="-203.8" font-family="Times,serif" font-size="14.00">updated_at :timestamp without time zone</text>
</g>
<!-- Item -->
<g id="node5" class="node"><title>Item</title>
<path fill="none" stroke="black" d="M375,-0.5C375,-0.5 595,-0.5 595,-0.5 601,-0.5 607,-6.5 607,-12.5 607,-12.5 607,-139.5 607,-139.5 607,-145.5 601,-151.5 595,-151.5 595,-151.5 375,-151.5 375,-151.5 369,-151.5 363,-145.5 363,-139.5 363,-139.5 363,-12.5 363,-12.5 363,-6.5 369,-0.5 375,-0.5"/>
<text text-anchor="middle" x="485" y="-136.3" font-family="Times,serif" font-size="14.00">Item</text>
<polyline fill="none" stroke="black" points="363,-128.5 607,-128.5 "/>
<text text-anchor="start" x="371" y="-113.3" font-family="Times,serif" font-size="14.00">id :integer</text>
<text text-anchor="start" x="371" y="-98.3" font-family="Times,serif" font-size="14.00">serie :integer</text>
<text text-anchor="start" x="371" y="-83.3" font-family="Times,serif" font-size="14.00">size :integer</text>
<text text-anchor="start" x="371" y="-68.3" font-family="Times,serif" font-size="14.00">description :text</text>
<text text-anchor="start" x="371" y="-53.3" font-family="Times,serif" font-size="14.00">category_id :integer</text>
<text text-anchor="start" x="371" y="-38.3" font-family="Times,serif" font-size="14.00">created_at :timestamp without time zone</text>
<text text-anchor="start" x="371" y="-23.3" font-family="Times,serif" font-size="14.00">updated_at :timestamp without time zone</text>
<text text-anchor="start" x="371" y="-8.3" font-family="Times,serif" font-size="14.00">user_id :integer</text>
</g>
<!-- Category&#45;&gt;Item -->
<g id="edge1" class="edge"><title>Category&#45;&gt;Item</title>
<path fill="none" stroke="#b22321" d="M395.006,-189.321C402.532,-179.928 410.562,-169.906 418.61,-159.861"/>
<ellipse fill="none" stroke="#b22321" cx="392.297" cy="-192.701" rx="4.00002" ry="4.00002"/>
<polygon fill="#b22321" stroke="#b22321" points="418.806,-159.616 428.571,-154.626 421.933,-155.714 425.059,-151.812 425.059,-151.812 425.059,-151.812 421.933,-155.714 421.547,-148.998 418.806,-159.616 418.806,-159.616"/>
</g>
<!-- ApplicationRecord -->
<g id="node3" class="node"><title>ApplicationRecord</title>
<ellipse fill="none" stroke="black" cx="833" cy="-241.5" rx="77.1866" ry="18"/>
<text text-anchor="middle" x="833" y="-237.8" font-family="Times,serif" font-size="14.00">ApplicationRecord</text>
</g>
<!-- User -->
<g id="node4" class="node"><title>User</title>
<path fill="none" stroke="black" d="M506,-188.5C506,-188.5 726,-188.5 726,-188.5 732,-188.5 738,-194.5 738,-200.5 738,-200.5 738,-282.5 738,-282.5 738,-288.5 732,-294.5 726,-294.5 726,-294.5 506,-294.5 506,-294.5 500,-294.5 494,-288.5 494,-282.5 494,-282.5 494,-200.5 494,-200.5 494,-194.5 500,-188.5 506,-188.5"/>
<text text-anchor="middle" x="616" y="-279.3" font-family="Times,serif" font-size="14.00">User</text>
<polyline fill="none" stroke="black" points="494,-271.5 738,-271.5 "/>
<text text-anchor="start" x="502" y="-256.3" font-family="Times,serif" font-size="14.00">id :integer</text>
<text text-anchor="start" x="502" y="-241.3" font-family="Times,serif" font-size="14.00">user :character varying</text>
<text text-anchor="start" x="502" y="-226.3" font-family="Times,serif" font-size="14.00">mail :character varying</text>
<text text-anchor="start" x="502" y="-211.3" font-family="Times,serif" font-size="14.00">created_at :timestamp without time zone</text>
<text text-anchor="start" x="502" y="-196.3" font-family="Times,serif" font-size="14.00">updated_at :timestamp without time zone</text>
</g>
<!-- User&#45;&gt;Item -->
<g id="edge2" class="edge"><title>User&#45;&gt;Item</title>
<path fill="none" stroke="#2a39bb" d="M569.078,-181.937C563.296,-174.721 557.303,-167.241 551.302,-159.751"/>
<ellipse fill="none" stroke="#2a39bb" cx="571.689" cy="-185.196" rx="4.00002" ry="4.00002"/>
<polygon fill="#2a39bb" stroke="#2a39bb" points="551.048,-159.434 548.307,-148.816 547.922,-155.532 544.795,-151.63 544.795,-151.63 544.795,-151.63 547.922,-155.532 541.283,-154.444 551.048,-159.434 551.048,-159.434"/>
</g>
</g>
</svg>
